<svg width="40" height="40" viewBox="0 0 40 40" fill="none" xmlns="http://www.w3.org/2000/svg">
<path d="M8.18134 36.5819C9.96484 35.9982 11.7513 35.4145 13.5348 34.8277C14.2979 36.5518 15.058 38.2759 15.8211 40C17.2155 38.7363 18.61 37.4725 20.0015 36.2088C20.2559 36.4375 20.5072 36.6692 20.7616 36.8978C21.9017 37.9329 23.0418 38.9649 24.1819 40C24.945 38.2759 25.7051 36.5518 26.4682 34.8277C28.2517 35.4115 30.0382 35.9952 31.8216 36.5819C31.8216 34.6954 31.8187 32.8088 31.8187 30.9192C33.6859 30.7236 35.5532 30.5281 37.4175 30.3325C36.6515 28.6084 35.8884 26.8843 35.1223 25.1632C36.7472 24.2215 38.3751 23.2797 40 22.3349C38.6055 21.0742 37.208 19.8104 35.8136 18.5497C35.9213 18.3993 36.032 18.2488 36.1397 18.0984C37.1362 16.7233 38.1297 15.3483 39.1262 13.9732C37.3397 13.3925 35.5562 12.8088 33.7697 12.2281C34.1617 10.3836 34.5537 8.53618 34.9428 6.69174C33.0755 6.89033 31.2112 7.08891 29.3439 7.2875C28.9549 5.44005 28.5659 3.59561 28.1769 1.74816C26.552 2.69294 24.9271 3.63773 23.3022 4.58252C22.4673 3.4241 21.6324 2.26869 20.7975 1.11028C20.5342 0.740184 20.2678 0.370092 20.0015 0C18.9003 1.52851 17.7961 3.05401 16.6948 4.58252C15.0699 3.63773 13.4451 2.69294 11.8202 1.74816C11.4311 3.5926 11.0421 5.44005 10.6531 7.2875C8.78582 7.08891 6.92152 6.89033 5.05424 6.69174C5.44625 8.53618 5.83826 10.3836 6.22728 12.2281C4.44079 12.8088 2.65729 13.3925 0.870801 13.9732C1.86729 15.3483 2.86078 16.7233 3.85726 18.0984C3.96499 18.2488 4.07571 18.3993 4.18344 18.5497C2.79195 19.8104 1.39448 21.0742 0 22.3349C1.6249 23.2767 3.25279 24.2184 4.87768 25.1632C4.11461 26.8873 3.34855 28.6114 2.58547 30.3325C4.45276 30.5281 6.32004 30.7236 8.18433 30.9192C8.18134 32.8058 8.18134 34.6954 8.18134 36.5819Z" fill="#DD0A18"/>
<path d="M13.9846 16.4194H15.795V23.5806H13.9846V20.8274H11.9796V23.5806H10.1572V16.4194H11.9796V19.0703H13.9846V16.4194Z" fill="white"/>
<path d="M20.3825 23.7341C19.3351 23.7341 18.4493 23.3761 17.7282 22.66C17.007 21.9348 16.6509 21.0532 16.6509 20.0001C16.6509 18.947 17.007 18.0654 17.7282 17.3493C18.4493 16.6242 19.3351 16.2661 20.3825 16.2661C21.4298 16.2661 22.3066 16.6242 23.0278 17.3493C23.749 18.0654 24.117 18.944 24.117 20.0001C24.117 21.0532 23.7519 21.9318 23.0278 22.66C22.3066 23.3761 21.4298 23.7341 20.3825 23.7341ZM20.3825 21.9439C20.9331 21.9439 21.3909 21.7603 21.756 21.4023C22.1211 21.0352 22.3066 20.5628 22.3066 20.0001C22.3066 19.4375 22.1241 18.9681 21.756 18.61C21.3909 18.2429 20.9331 18.0564 20.3825 18.0564C19.8318 18.0564 19.374 18.2399 19.0089 18.61C18.6438 18.9681 18.4583 19.4375 18.4583 20.0001C18.4583 20.5628 18.6409 21.0322 19.0089 21.4023C19.377 21.7603 19.8348 21.9439 20.3825 21.9439Z" fill="white"/>
<path d="M29.8444 16.4194V18.1887H28.0849V23.5806H26.2625V18.1917H24.5029V16.4224H29.8444V16.4194Z" fill="white"/>
</svg>
