<svg width="12" height="13" viewBox="0 0 12 13" fill="none" xmlns="http://www.w3.org/2000/svg">
<path d="M6.86447 2.06854L7.74447 3.82855C7.86447 4.07354 8.18447 4.30854 8.45447 4.35354L10.0495 4.61854C11.0695 4.78854 11.3095 5.52854 10.5745 6.25854L9.33447 7.49854C9.12447 7.70854 9.00947 8.11354 9.07447 8.40354L9.42947 9.93855C9.70947 11.1535 9.06447 11.6235 7.98947 10.9885L6.49447 10.1035C6.22447 9.94355 5.77947 9.94355 5.50447 10.1035L4.00947 10.9885C2.93947 11.6235 2.28947 11.1485 2.56947 9.93855L2.92447 8.40354C2.98947 8.11354 2.87447 7.70854 2.66447 7.49854L1.42447 6.25854C0.694466 5.52854 0.929466 4.78854 1.94947 4.61854L3.54447 4.35354C3.80947 4.30854 4.12947 4.07354 4.24947 3.82855L5.12947 2.06854C5.60947 1.11354 6.38947 1.11354 6.86447 2.06854Z" fill="#FFC016" stroke="#FFC016" stroke-width="1.5" stroke-linecap="round" stroke-linejoin="round"/>
</svg>
